:SAMPLES-PER-SECOND 30
:FULLY-SPECIFIED
:DEGREES
758
root  -19.4382 34.0968 17.5032 -100.574 1.53622 77.4525
Spine  -2.39254 -3.8943 -4.45979
Spine1  -2.15679 0.107212 -8.10135
Neck  3.97569e-016 0 -2.38542e-015
Head  10.8499 0.64483 -6.27691
R_Clavicle  0.34277 -16.8261 0.548305
R_UpperArm  21.2166 -2.80463 30.2873
R_Forearm  7.4261 -15.0729 12.9144
R_Hand  -0.749577 3.43948 -15.1748
L_Clavicle  -0.425985 15.2199 -0.552951
L_UpperArm  -24.4026 9.26508 23.6144
L_Forearm  -20.408 26.9967 35.6061
L_Hand  0.214114 8.84546 1.91698
L_Thigh  -10.0149 -2.82408 0.840668
L_Calf  -2.42987 -3.1828 23.9989
L_Foot  -0.531894 7.51957 -9.13872
L_Toe0  0.505156 0.034446 -6.1361
R_Thigh  5.06038 -7.57557 2.47701
R_Calf  -9.18231 1.16076 3.54665
R_Foot  2.34427 7.20329 -5.33189
R_Toe0  -1.70249 -0.280134 -17.4016
759
root  -18.9128 34.4821 17.9731 -91.3928 1.89102 78.9268
Spine  -2.81459 -3.8126 -4.09538
Spine1  -2.7919 2.85615 -7.88839
Neck  3.97569e-016 0 -2.38542e-015
Head  5.46451 -1.76813 -6.44516
R_Clavicle  0.327945 -16.0938 0.478945
R_UpperArm  19.6692 -3.44402 35.1381
R_Forearm  11.6187 -20.264 17.8254
R_Hand  -0.688271 3.23585 -14.3754
L_Clavicle  -0.384147 14.054 -0.654338
L_UpperArm  -31.3233 7.04048 26.118
L_Forearm  -21.393 30.4826 40.3667
L_Hand  0.104337 8.36054 1.07514
L_Thigh  -9.85117 -3.30844 1.7118
L_Calf  -7.43167 -1.88044 13.8351
L_Foot  0.159373 7.89406 -6.61126
L_Toe0  0.505156 0.034446 -6.1361
R_Thigh  6.52211 -3.28181 -0.122955
R_Calf  -11.4281 2.64528 8.20964
R_Foot  3.24095 10.7073 -8.51496
R_Toe0  -2.43056 -0.232411 -16.7468
760
root  -18.3972 34.407 18.2813 -81.9974 1.21265 80.5525
Spine  -3.36935 -3.79957 -3.8473
Spine1  -3.49086 6.13686 -7.0496
Neck  3.97569e-016 0 -2.38542e-015
Head  0.287268 -4.22258 -6.33894
R_Clavicle  0.346554 -16.277 0.760415
R_UpperArm  19.9488 -3.51987 41.157
R_Forearm  14.0014 -24.5441 20.7951
R_Hand  -0.667767 3.7774 -14.4922
L_Clavicle  -0.377213 13.5805 -0.226345
L_UpperArm  -34.2652 2.5992 28.4081
L_Forearm  -25.227 31.5988 43.1279
L_Hand  0.0408136 7.95953 0.557199
L_Thigh  -5.70123 -4.22638 0.483307
L_Calf  -6.05839 -0.163887 0.968858
L_Foot  0.283916 6.27695 -4.95961
L_Toe0  0.505156 0.034446 -6.1361
R_Thigh  6.49776 1.94776 -2.36681
R_Calf  -16.2788 4.06746 12.7581
R_Foot  4.08612 14.9016 -11.8107
R_Toe0  -6.50002 0.226172 -12.9816
761
root  -17.9303 33.9369 18.5338 -72.5537 0.809095 81.8142
Spine  -4.34222 -3.97844 -4.85624
Spine1  -4.38839 8.98196 -5.91555
Neck  3.97569e-016 0 -2.38542e-015
Head  -4.88091 -5.92801 -5.12711
R_Clavicle  0.38562 -17.5596 1.2921
R_UpperArm  27.223 -3.52898 48.1139
R_Forearm  10.6006 -29.6971 21.5324
R_Hand  -0.596488 4.29802 -14.0616
L_Clavicle  -0.383641 13.3198 0.37495
L_UpperArm  -35.7532 -2.85158 30.9637
L_Forearm  -28.0547 31.1567 43.2021
L_Hand  0.0393523 8.00065 0.547479
L_Thigh  -2.22801 -4.99213 -1.49927
L_Calf  -4.07486 1.47971 -11.1458
L_Foot  0.075982 6.69839 -6.08891
L_Toe0  0.505156 0.034446 -6.1361
R_Thigh  6.86294 6.89781 -2.61747
R_Calf  -20.2759 5.25133 16.6221
R_Foot  3.43806 10.7238 -16.5404
R_Toe0  -11.2915 1.46685 -8.69778
762
root  -17.5484 33.1503 18.739 -63.565 0.775261 82.5381
Spine  -5.61602 -5.2537 -7.00505
Spine1  -5.32548 11.8545 -4.42634
Neck  3.97569e-016 0 -2.38542e-015
Head  -9.47867 -7.0331 -3.21477
R_Clavicle  0.41389 -18.172 1.9249
R_UpperArm  35.4231 -4.49945 54.8464
R_Forearm  7.13947 -34.0639 22.9529
R_Hand  -0.489079 4.76365 -13.2839
L_Clavicle  -0.382702 12.7742 0.820502
L_UpperArm  -37.9256 -8.143 34
L_Forearm  -28.0012 29.4162 40.6677
L_Hand  0.0745028 8.27218 0.832326
L_Thigh  -0.658995 -4.78872 -4.56252
L_Calf  -6.61444 2.69725 -20.4195
L_Foot  -0.445503 7.0783 -8.41463
L_Toe0  0.505156 0.034446 -6.1361
R_Thigh  8.9279 10.5559 -1.88099
R_Calf  -17.805 5.91746 18.8531
R_Foot  1.39857 -4.35682 -18.4983
R_Toe0  -13.6143 2.7172 -4.60902
763
root  -17.2701 32.0584 18.8836 -55.5872 0.425728 82.7277
Spine  -6.81017 -7.23317 -8.89804
Spine1  -6.10329 14.536 -3.12801
Neck  3.97569e-016 0 -2.38542e-015
Head  -13.3114 -7.87497 -1.23545
R_Clavicle  0.443322 -17.3088 2.6102
R_UpperArm  40.5592 -6.59542 60.7181
R_Forearm  6.84321 -37.2494 25.4963
R_Hand  -0.482992 5.51164 -13.7031
L_Clavicle  -0.384305 11.9241 1.365
L_UpperArm  -41.1947 -13.1762 37.0667
L_Forearm  -25.9536 26.9006 36.1067
L_Hand  -0.0119225 8.41028 0.121225
L_Thigh  -0.33613 -2.70086 -9.38195
L_Calf  -10.3354 3.44178 -26.3547
L_Foot  -1.21577 6.87803 -11.3011
L_Toe0  0.505156 0.034446 -6.1361
R_Thigh  11.636 13.1453 -1.43976
R_Calf  -6.71337 5.8122 18.5295
R_Foot  -2.73731 -20.5329 -10.5977
R_Toe0  -4.59408 1.27036 -2.87585
764
root  -17.0583 30.8732 19.0155 -48.4634 -0.612071 82.707
Spine  -7.82881 -8.33116 -9.66166
Spine1  -6.93066 16.2525 -2.56374
Neck  3.97569e-016 0 -2.38542e-015
Head  -16.5685 -8.47542 0.359414
R_Clavicle  0.485057 -16.0921 3.25491
R_UpperArm  41.9778 -8.85901 65.8587
R_Forearm  7.85336 -39.2218 28.3324
R_Hand  -0.590563 6.15649 -14.9911
L_Clavicle  -0.419884 10.8812 2.52184
L_UpperArm  -43.6185 -17.7326 39.3028
L_Forearm  -24.1295 23.1381 29.5474
L_Hand  -0.183937 8.43207 -1.28578
L_Thigh  -0.339363 1.5008 -15.2575
L_Calf  -10.8396 3.72534 -28.6744
L_Foot  -1.9946 7.35201 -14.6321
L_Toe0  0.505156 0.034446 -6.1361
R_Thigh  13.703 14.8117 -0.46957
R_Calf  5.36113 4.93137 15.6761
R_Foot  -7.54117 -23.1631 2.9715
R_Toe0  3.76391 -0.842699 -9.64031
765
root  -16.7766 30.0059 19.24 -41.4575 -1.91874 82.9305
Spine  -8.89096 -8.3565 -9.43253
Spine1  -8.01176 17.6987 -2.6308
Neck  3.97569e-016 0 -2.38542e-015
Head  -19.115 -9.08659 1.15739
R_Clavicle  0.516257 -15.4752 3.65789
R_UpperArm  41.2526 -10.7036 70.0763
R_Forearm  7.26536 -39.79 29.419
R_Hand  -0.537658 6.22642 -14.5711
L_Clavicle  -0.508381 9.61617 4.21489
L_UpperArm  -43.497 -20.4038 40.2639
L_Forearm  -22.5688 16.8485 20.4635
L_Hand  -0.179691 8.60548 -1.2252
L_Thigh  -0.0447054 6.92305 -20.1886
L_Calf  -8.72858 3.54711 -27.198
L_Foot  -2.32825 7.37743 -15.9582
L_Toe0  0.505156 0.034446 -6.1361
R_Thigh  15.7772 15.7838 1.30288
R_Calf  10.9699 4.14143 13.1243
R_Foot  -9.19008 -20.7484 10.3342
R_Toe0  2.22387 -0.355298 -15.5087
766
root  -16.3173 29.7222 19.6701 -34.6702 -2.24905 83.2255
Spine  -9.83357 -9.03377 -8.55615
Spine1  -9.10361 19.8658 -3.25819
Neck  3.97569e-016 0 -2.38542e-015
Head  -20.9341 -10.0677 1.2269
R_Clavicle  0.516014 -15.5296 3.66759
R_UpperArm  38.7353 -12.2277 72.3415
R_Forearm  5.72794 -39.0518 27.6467
R_Hand  -0.283044 5.5976 -11.928
L_Clavicle  -0.616513 8.05293 5.5439
L_UpperArm  -40.5204 -19.6289 39.8842
L_Forearm  -19.7724 8.19215 9.56054
L_Hand  0.0551362 9.38051 0.661756
L_Thigh  0.786931 10.9945 -22.8793
L_Calf  -5.62644 2.87758 -21.8309
L_Foot  -1.8515 5.98398 -13.3481
L_Toe0  0.505156 0.034446 -6.1361
R_Thigh  18.3682 14.9835 3.70611
R_Calf  13.116 4.01837 12.7171
R_Foot  -8.76586 -19.617 10.3723
R_Toe0  0.588657 -0.286997 -15.9671
